# xmcd
# 
# Track frame offsets:
#     150
#     20907
#     43641
#     64039
#     85526
#     169665
#     185537
#     205079
#     224737
#     240506
#     262136
#     283431
#     298942
#     319939
#     339017
# 
# Disc length: 4762
# 
# Revision: 1
# Processed by: cddbd v1.5.2PL0 Copyright (c) Steve Scherf et al.
# Submitted via: fre:ac v1.0.31
# 
DISCID=ec12980f
DTITLE=桑田佳祐 - I LOVE YOU -now and forever-  [DISC 2]
DYEAR=2012
DGENRE=JPop
TTITLE0=ダーリン
TTITLE1=現代東京奇譚
TTITLE2=MY LITTLE HOMETOWN
TTITLE3=君にサヨナラを
TTITLE4=声に出して歌いたい日本文学 <Medley>
TTITLE5=本当は怖い愛とロマンス
TTITLE6=銀河の星屑
TTITLE7=月光の聖者達
TTITLE8=明日へのマーチ
TTITLE9=Let's try again ～kuwata keisuke ver.～
TTITLE10=幸せのラストダンス
TTITLE11=CAFÉ BLEU
TTITLE12=100万年の幸せ!!
TTITLE13=MASARU
TTITLE14=愛しい人へ捧ぐ歌
EXTD=
EXTT0=
EXTT1=
EXTT2=
EXTT3=
EXTT4=
EXTT5=
EXTT6=
EXTT7=
EXTT8=
EXTT9=
EXTT10=
EXTT11=
EXTT12=
EXTT13=
EXTT14=
PLAYORDER=
